<?xml version="1.0" standalone="no"?>
<svg viewBox="0 0 200 200" xmlns="http://www.w3.org/2000/svg">
  <path fill="#2563EB" d="M37.5,-56C49.9,-57.8,62.2,-50.4,63.6,-39.5C64.9,-28.7,55.3,-14.3,49.1,-3.6C42.8,7.1,39.8,14.2,37.9,24.1C36,33.9,35.1,46.6,29,52C22.8,57.5,11.4,55.6,-0.6,56.6C-12.6,57.6,-25.1,61.4,-37.5,59.6C-49.9,57.8,-62.1,50.4,-70.4,39.5C-78.8,28.6,-83.2,14.3,-80.4,1.6C-77.6,-11.1,-67.6,-22.1,-56.6,-28.5C-45.7,-34.8,-33.9,-36.5,-24.3,-36.4C-14.7,-36.2,-7.3,-34.3,2.6,-38.8C12.5,-43.3,25.1,-54.2,37.5,-56Z" transform="translate(100 100)" />
</svg>
