<svg width="157" height="60" viewBox="0 0 157 60" fill="none" xmlns="http://www.w3.org/2000/svg">
<path d="M10.58 39.58L10.244 32.188L27.86 13.9H34.868L20.228 29.452L16.772 33.244L10.58 39.58ZM5.012 47.5V13.9H11.252V47.5H5.012ZM28.436 47.5L15.572 32.188L19.7 27.628L35.732 47.5H28.436Z" fill="#F5F5F5"/>
<path d="M50.692 43.36C48.724 43.36 46.912 43.036 45.256 42.388C43.6 41.74 42.16 40.84 40.936 39.688C39.712 38.512 38.764 37.144 38.092 35.584C37.42 34 37.084 32.272 37.084 30.4C37.084 28.528 37.42 26.812 38.092 25.252C38.764 23.668 39.712 22.3 40.936 21.148C42.16 19.972 43.6 19.06 45.256 18.412C46.912 17.764 48.712 17.44 50.656 17.44C52.624 17.44 54.424 17.764 56.056 18.412C57.712 19.06 59.152 19.972 60.376 21.148C61.6 22.3 62.548 23.668 63.22 25.252C63.892 26.812 64.228 28.528 64.228 30.4C64.228 32.272 63.892 34 63.22 35.584C62.548 37.168 61.6 38.536 60.376 39.688C59.152 40.84 57.712 41.74 56.056 42.388C54.424 43.036 52.636 43.36 50.692 43.36ZM50.656 39.256C51.928 39.256 53.104 39.04 54.184 38.608C55.264 38.176 56.2 37.564 56.992 36.772C57.784 35.956 58.396 35.02 58.828 33.964C59.284 32.884 59.512 31.696 59.512 30.4C59.512 29.104 59.284 27.928 58.828 26.872C58.396 25.792 57.784 24.856 56.992 24.064C56.2 23.248 55.264 22.624 54.184 22.192C53.104 21.76 51.928 21.544 50.656 21.544C49.384 21.544 48.208 21.76 47.128 22.192C46.072 22.624 45.136 23.248 44.32 24.064C43.528 24.856 42.904 25.792 42.448 26.872C42.016 27.928 41.8 29.104 41.8 30.4C41.8 31.672 42.016 32.848 42.448 33.928C42.904 35.008 43.528 35.956 44.32 36.772C45.112 37.564 46.048 38.176 47.128 38.608C48.208 39.04 49.384 39.256 50.656 39.256Z" fill="#F5F5F5"/>
<path d="M39.5 44C48.1128 51.2444 58.422 47.0185 62.5 44" stroke="#F5F5F5" stroke-width="2" stroke-linecap="round"/>
<path d="M70.436 47.5V11.884H76.436V47.5H70.436ZM84.311 47.5V11.884H90.311V47.5H84.311ZM113.978 47.5V42.316L113.642 41.212V32.14C113.642 30.38 113.114 29.02 112.058 28.06C111.002 27.068 109.402 26.572 107.258 26.572C105.818 26.572 104.394 26.796 102.986 27.244C101.61 27.692 100.442 28.316 99.482 29.116L97.13 24.748C98.506 23.692 100.138 22.908 102.026 22.396C103.946 21.852 105.93 21.58 107.978 21.58C111.69 21.58 114.554 22.476 116.57 24.268C118.618 26.028 119.642 28.764 119.642 32.476V47.5H113.978ZM105.914 47.836C103.994 47.836 102.314 47.516 100.874 46.876C99.434 46.204 98.314 45.292 97.514 44.14C96.746 42.956 96.362 41.628 96.362 40.156C96.362 38.716 96.698 37.42 97.37 36.268C98.074 35.116 99.21 34.204 100.778 33.532C102.346 32.86 104.426 32.524 107.018 32.524H114.458V36.508H107.45C105.402 36.508 104.026 36.844 103.322 37.516C102.618 38.156 102.266 38.956 102.266 39.916C102.266 41.004 102.698 41.868 103.562 42.508C104.426 43.148 105.626 43.468 107.162 43.468C108.634 43.468 109.946 43.132 111.098 42.46C112.282 41.788 113.13 40.796 113.642 39.484L114.65 43.084C114.074 44.588 113.034 45.756 111.53 46.588C110.058 47.42 108.186 47.836 105.914 47.836ZM141.55 47.836C139.374 47.836 137.438 47.356 135.742 46.396C134.046 45.436 132.702 43.996 131.71 42.076C130.75 40.124 130.27 37.66 130.27 34.684C130.27 31.676 130.766 29.212 131.758 27.292C132.782 25.372 134.142 23.948 135.838 23.02C137.566 22.06 139.47 21.58 141.55 21.58C144.078 21.58 146.302 22.124 148.222 23.212C150.174 24.3 151.71 25.82 152.83 27.772C153.982 29.724 154.558 32.028 154.558 34.684C154.558 37.34 153.982 39.644 152.83 41.596C151.71 43.548 150.174 45.084 148.222 46.204C146.302 47.292 144.078 47.836 141.55 47.836ZM127.342 47.5V11.884H133.342V27.82L132.862 34.636L133.054 41.452V47.5H127.342ZM140.878 42.7C142.318 42.7 143.598 42.38 144.718 41.74C145.87 41.1 146.782 40.172 147.454 38.956C148.126 37.74 148.462 36.316 148.462 34.684C148.462 33.02 148.126 31.596 147.454 30.412C146.782 29.196 145.87 28.268 144.718 27.628C143.598 26.988 142.318 26.668 140.878 26.668C139.438 26.668 138.142 26.988 136.99 27.628C135.838 28.268 134.926 29.196 134.254 30.412C133.582 31.596 133.246 33.02 133.246 34.684C133.246 36.316 133.582 37.74 134.254 38.956C134.926 40.172 135.838 41.1 136.99 41.74C138.142 42.38 139.438 42.7 140.878 42.7Z" fill="#F5F5F5"/>
</svg>
