<svg width="43" height="44" viewBox="0 0 43 44" fill="none" xmlns="http://www.w3.org/2000/svg">
<path d="M21.192 35.36C19.224 35.36 17.412 35.036 15.756 34.388C14.1 33.74 12.66 32.84 11.436 31.688C10.212 30.512 9.264 29.144 8.592 27.584C7.92 26 7.584 24.272 7.584 22.4C7.584 20.528 7.92 18.812 8.592 17.252C9.264 15.668 10.212 14.3 11.436 13.148C12.66 11.972 14.1 11.06 15.756 10.412C17.412 9.764 19.212 9.44 21.156 9.44C23.124 9.44 24.924 9.764 26.556 10.412C28.212 11.06 29.652 11.972 30.876 13.148C32.1 14.3 33.048 15.668 33.72 17.252C34.392 18.812 34.728 20.528 34.728 22.4C34.728 24.272 34.392 26 33.72 27.584C33.048 29.168 32.1 30.536 30.876 31.688C29.652 32.84 28.212 33.74 26.556 34.388C24.924 35.036 23.136 35.36 21.192 35.36ZM21.156 31.256C22.428 31.256 23.604 31.04 24.684 30.608C25.764 30.176 26.7 29.564 27.492 28.772C28.284 27.956 28.896 27.02 29.328 25.964C29.784 24.884 30.012 23.696 30.012 22.4C30.012 21.104 29.784 19.928 29.328 18.872C28.896 17.792 28.284 16.856 27.492 16.064C26.7 15.248 25.764 14.624 24.684 14.192C23.604 13.76 22.428 13.544 21.156 13.544C19.884 13.544 18.708 13.76 17.628 14.192C16.572 14.624 15.636 15.248 14.82 16.064C14.028 16.856 13.404 17.792 12.948 18.872C12.516 19.928 12.3 21.104 12.3 22.4C12.3 23.672 12.516 24.848 12.948 25.928C13.404 27.008 14.028 27.956 14.82 28.772C15.612 29.564 16.548 30.176 17.628 30.608C18.708 31.04 19.884 31.256 21.156 31.256Z" fill="#111623"/>
<path d="M10 36C18.6128 43.2444 28.922 39.0185 33 36" stroke="#111623" stroke-width="2" stroke-linecap="round"/>
</svg>
