<svg width="156" height="59" viewBox="0 0 156 59" fill="none" xmlns="http://www.w3.org/2000/svg">
<path d="M10.08 39.08L9.744 31.688L27.36 13.4H34.368L19.728 28.952L16.272 32.744L10.08 39.08ZM4.512 47V13.4H10.752V47H4.512ZM27.936 47L15.072 31.688L19.2 27.128L35.232 47H27.936Z" fill="#022640"/>
<path d="M50.192 42.86C48.224 42.86 46.412 42.536 44.756 41.888C43.1 41.24 41.66 40.34 40.436 39.188C39.212 38.012 38.264 36.644 37.592 35.084C36.92 33.5 36.584 31.772 36.584 29.9C36.584 28.028 36.92 26.312 37.592 24.752C38.264 23.168 39.212 21.8 40.436 20.648C41.66 19.472 43.1 18.56 44.756 17.912C46.412 17.264 48.212 16.94 50.156 16.94C52.124 16.94 53.924 17.264 55.556 17.912C57.212 18.56 58.652 19.472 59.876 20.648C61.1 21.8 62.048 23.168 62.72 24.752C63.392 26.312 63.728 28.028 63.728 29.9C63.728 31.772 63.392 33.5 62.72 35.084C62.048 36.668 61.1 38.036 59.876 39.188C58.652 40.34 57.212 41.24 55.556 41.888C53.924 42.536 52.136 42.86 50.192 42.86ZM50.156 38.756C51.428 38.756 52.604 38.54 53.684 38.108C54.764 37.676 55.7 37.064 56.492 36.272C57.284 35.456 57.896 34.52 58.328 33.464C58.784 32.384 59.012 31.196 59.012 29.9C59.012 28.604 58.784 27.428 58.328 26.372C57.896 25.292 57.284 24.356 56.492 23.564C55.7 22.748 54.764 22.124 53.684 21.692C52.604 21.26 51.428 21.044 50.156 21.044C48.884 21.044 47.708 21.26 46.628 21.692C45.572 22.124 44.636 22.748 43.82 23.564C43.028 24.356 42.404 25.292 41.948 26.372C41.516 27.428 41.3 28.604 41.3 29.9C41.3 31.172 41.516 32.348 41.948 33.428C42.404 34.508 43.028 35.456 43.82 36.272C44.612 37.064 45.548 37.676 46.628 38.108C47.708 38.54 48.884 38.756 50.156 38.756Z" fill="#022640"/>
<path d="M39 43.5C47.6128 50.7444 57.922 46.5185 62 43.5" stroke="#022640" stroke-width="2" stroke-linecap="round"/>
<path d="M69.936 47V11.384H75.936V47H69.936ZM83.811 47V11.384H89.811V47H83.811ZM113.478 47V41.816L113.142 40.712V31.64C113.142 29.88 112.614 28.52 111.558 27.56C110.502 26.568 108.902 26.072 106.758 26.072C105.318 26.072 103.894 26.296 102.486 26.744C101.11 27.192 99.942 27.816 98.982 28.616L96.63 24.248C98.006 23.192 99.638 22.408 101.526 21.896C103.446 21.352 105.43 21.08 107.478 21.08C111.19 21.08 114.054 21.976 116.07 23.768C118.118 25.528 119.142 28.264 119.142 31.976V47H113.478ZM105.414 47.336C103.494 47.336 101.814 47.016 100.374 46.376C98.934 45.704 97.814 44.792 97.014 43.64C96.246 42.456 95.862 41.128 95.862 39.656C95.862 38.216 96.198 36.92 96.87 35.768C97.574 34.616 98.71 33.704 100.278 33.032C101.846 32.36 103.926 32.024 106.518 32.024H113.958V36.008H106.95C104.902 36.008 103.526 36.344 102.822 37.016C102.118 37.656 101.766 38.456 101.766 39.416C101.766 40.504 102.198 41.368 103.062 42.008C103.926 42.648 105.126 42.968 106.662 42.968C108.134 42.968 109.446 42.632 110.598 41.96C111.782 41.288 112.63 40.296 113.142 38.984L114.15 42.584C113.574 44.088 112.534 45.256 111.03 46.088C109.558 46.92 107.686 47.336 105.414 47.336ZM141.05 47.336C138.874 47.336 136.938 46.856 135.242 45.896C133.546 44.936 132.202 43.496 131.21 41.576C130.25 39.624 129.77 37.16 129.77 34.184C129.77 31.176 130.266 28.712 131.258 26.792C132.282 24.872 133.642 23.448 135.338 22.52C137.066 21.56 138.97 21.08 141.05 21.08C143.578 21.08 145.802 21.624 147.722 22.712C149.674 23.8 151.21 25.32 152.33 27.272C153.482 29.224 154.058 31.528 154.058 34.184C154.058 36.84 153.482 39.144 152.33 41.096C151.21 43.048 149.674 44.584 147.722 45.704C145.802 46.792 143.578 47.336 141.05 47.336ZM126.842 47V11.384H132.842V27.32L132.362 34.136L132.554 40.952V47H126.842ZM140.378 42.2C141.818 42.2 143.098 41.88 144.218 41.24C145.37 40.6 146.282 39.672 146.954 38.456C147.626 37.24 147.962 35.816 147.962 34.184C147.962 32.52 147.626 31.096 146.954 29.912C146.282 28.696 145.37 27.768 144.218 27.128C143.098 26.488 141.818 26.168 140.378 26.168C138.938 26.168 137.642 26.488 136.49 27.128C135.338 27.768 134.426 28.696 133.754 29.912C133.082 31.096 132.746 32.52 132.746 34.184C132.746 35.816 133.082 37.24 133.754 38.456C134.426 39.672 135.338 40.6 136.49 41.24C137.642 41.88 138.938 42.2 140.378 42.2Z" fill="#022640"/>
</svg>
